Pretty.Little.Liars.S03E03.Kingdom.Of.The.Blind.720p.WEB.DL.DD5.1.H.264.ECI




General
Unique ID                      : 203409769016728694189151856712670853348 (0x99074BE846FF82D7A1FE82D0DA1538E4)
Complete name                  : E:Pretty.Little.Liars.S03E03.Kingdom.Of.The.Blind.720p.WEB.DL.DD5.1.H.264.ECI.mkv
Format                         : Matroska
Format version                 : Version 2
File size                      : 1.45 GiB
Duration                       : 44mn 20s
Overall bit rate               : 4 666 Kbps
Movie name                     : Pretty.Little.Liars.S03E03.Kingdom.Of.The.Blind.720p.WEB.DL.DD5.1.H.264.ECI.mkv 16948
Encoded date                   : UTC 2012-06-20 09:28:09
Writing application            : mkvmerge v5.5.0 ('Healer') built on Apr  6 2012 21:43:24
Writing library                : libebml v1.2.3 + libmatroska v1.3.0

Video
ID                             : 1
Format                         : AVC
Format/Info                    : Advanced Video Codec
Format profile                 : High@L3.1
Format settings, CABAC         : No
Format settings, ReFrames      : 2 frames
Muxing mode                    : Header stripping
Codec ID                       : V_MPEG4/ISO/AVC
Duration                       : 44mn 20s
Bit rate                       : 4 190 Kbps
Width                          : 1 280 pixels
Height                         : 720 pixels
Display aspect ratio           : 16:9
Frame rate                     : 23.976 fps
Color space                    : YUV
Chroma subsampling             : 4:2:0
Bit depth                      : 8 bits
Scan type                      : Progressive
Bits/(Pixel*Frame)             : 0.190
Stream size                    : 1.30 GiB (90%)
Language                       : English
Default                        : Yes
Forced                         : No
Color primaries                : BT.709-5, BT.1361, IEC 61966-2-4, SMPTE RP177
Transfer characteristics       : BT.709-5, BT.1361
Matrix coefficients            : BT.709-5, BT.1361, IEC 61966-2-4 709, SMPTE RP177

Audio
ID                             : 2
Format                         : AC-3
Format/Info                    : Audio Coding 3
Mode extension                 : CM (complete main)
Muxing mode                    : Header stripping
Codec ID                       : A_AC3
Duration                       : 44mn 20s
Bit rate mode                  : Constant
Bit rate                       : 384 Kbps
Channel(s)                     : 6 channels
Channel positions              : Front: L C R, Side: L R, LFE
Sampling rate                  : 48.0 KHz
Bit depth                      : 16 bits
Compression mode               : Lossy
Stream size                    : 122 MiB (8%)
Language                       : English
Default                        : Yes
Forced                         : No
